@VAS0 = { 0 0 0 0 0 0 0 0  }
@VAS1 = { 200 100 0 }
@PO0 = { -8 -40 -40 }
@PO1 = { 0 1024 }

A t130 v255 @TYPE0 o4
A c4.r8>c4.<r8
A c4.r8>d4.<r8
A c4.r8>a4.r8
A b2<f8r16f8r16g8
A c4.r8>c4.<r8
A c4.r8>d4.<r8
A c4.r8>a4.r8
A b2<f8r16f8r16g8
A c4.r8>c4.<r8
A c4.r8>d4.<r8
A c4.r8>a4.r8
A b2<f8r16f8r16g8
A c32r32c32r16.c32r32c2r4
A d16r16c16r16d16r16c16r16d16r16c16r16d16r16c16r16
A <c32r32c32r16.c32r32c2r4
A d16r16c16r16d16r16c16r16d16r16c16r16d16r8.
A >c32r32c32r16.c32r32c2r4
A d16r16c16r16d16r16c16r16d16r16c16r16d16r16c16r16
A <c32r32c32r16.c32r32c2r4
A d16r16c16r16d16r16c16r16d16r16c16r16d16r8.
A >c32r32c32r16.c32r32c2r4
A d16r16c16r16d16r16c16r16d16r16c16r16d16r16c16r16
A <c32r32c32r16.c32r32c2r4
A d16r16c16r16d16r16c16r16d16r16c16r16d16r6r24

B t130 v160 @TYPE2
B o4
B c2.r4
B d2>b2
B <c2.r4
B >b2<d2
B c2.r4
B d2>b2
B <c2.r4
B >b2<d2
B c2.r4
B d2>b2
B <c2.r4
B >b2<d2
B c2..r8
B >b2<d2
B c2..r8
B b2<d2
B >c2..r8
B >b2<d2
B c2..r8
B b2<d2
B >c2..r8
B >b2<d2
B c2..r8
B b2<d2
B r48

C t130 @TYPE1 o9 v255 @VAS0
C c16r16c16r16c16r16c16r16c16r16c16r16c16r16c16r16
C c16r16c16r16c16r16c16r16c16c16r16c16c16r16c16r16
C c16r16c16r16c16r16c16r16c16r16c16r16c16r16c16r16
C c16r16c16r16c16r16c16r16c16c16r16c16c16r16c16r16
C c16r16c16r16c16r16c16r16c16r16c16r16c16r16c16r16
C c16r16c16r16c16r16c16r16c16c16r16c16c16r16c16r16
C c16r16c16r16c16r16c16r16c16r16c16r16c16r16c16r16
C c16r16c16r16c16r16c16r16c16c16r16c16c16r16c16r16
C c16r16c16r16c16r16c16r16c16r16c16r16c16r16c16r16
C c16r16c16r16c16r16c16r16c16c16r16c16c16r16c16r16
C c16r16c16r16c16r16c16r16c16r16c16r16c16r16c16r16
C c16r16c16r16c16r16c16r16c16c16r16c16c16r16c16r16
C @VAS0

D t130 v200 o3 @TYPE0
D @VAS1
D @PO0
D c16r2r8.c16c16r16c16
D c16r4..c16c16r16c16c16r16c16r16
D c16r4..c16r16c16r16c16r8.
D c16r16c16r16c16r8.c16c16r16c16c16r16c16r16
D c16r2r8.c16c16r16c16
D c16r4..c16c16r16c16c16r16c16r16
D c16r4..c16r16c16r16c16r8.
D c16r16c16r16c16r8.c16c16r16c16c16r16c16r16
D c16r2r8.c16c16r16c16
D c16r4..c16c16r16c16c16r16c16r16
D c16r4..c16r16c16r16c16r8.
D c16r16c16r16c16r8.c16c16r16c16c16r16c16r16
D c16c16r16c16c16r8.c16r16c16r16c16r8.
D c16r8.c16r8.c16r16c16r16c16r16c16r16
D c16c16r16c16c16r8.c16r16c16r16c16r8.
D c16r8.c16r4..c16r16c16r16
D c16c16r16c16c16r8.c16r16c16r16c16r8.
D c16r8.c16r8.c16r16c16r16c16r16c16r16
D c16c16r16c16c16r8.c16r16c16r16c16r8.
D c16r8.c16r4..c16r16c16r16
D c16c16r16c16c16r8.c16r16c16r16c16r8.
D c16r8.c16r8.c16r16c16r16c16r16c16r16
D c16c16r16c16c16r8.c16r16c16r16c16r8.
D c16r8.c16r4..c16r16c16r12
D @PO0
D @VAS1

E t130 v200 o3 @TYPE2
E @VAS1
E @PO0
E c16r2r8.c16c16r16c16
E c16r4..c16c16r16c16c16r16c16r16
E c16r4..c16r16c16r16c16r8.
E c16r16c16r16c16r8.c16c16r16c16c16r16c16r16
E c16r2r8.c16c16r16c16
E c16r4..c16c16r16c16c16r16c16r16
E c16r4..c16r16c16r16c16r8.
E c16r16c16r16c16r8.c16c16r16c16c16r16c16r16
E c16r2r8.c16c16r16c16
E c16r4..c16c16r16c16c16r16c16r16
E c16r4..c16r16c16r16c16r8.
E c16r16c16r16c16r8.c16c16r16c16c16r16c16r16
E c16c16r16c16c16r8.c16r16c16r16c16r8.
E c16r8.c16r8.c16r16c16r16c16r16c16r16
E c16c16r16c16c16r8.c16r16c16r16c16r8.
E c16r8.c16r4..c16r16c16r16
E c16c16r16c16c16r8.c16r16c16r16c16r8.
E c16r8.c16r8.c16r16c16r16c16r16c16r16
E c16c16r16c16c16r8.c16r16c16r16c16r8.
E c16r8.c16r4..c16r16c16r16
E c16c16r16c16c16r8.c16r16c16r16c16r8.
E c16r8.c16r8.c16r16c16r16c16r16c16r16
E c16c16r16c16c16r8.c16r16c16r16c16r8.
E c16r8.c16r4..c16r16c16r12
E @PO0
E @VAS1

F t130 v200 o4 @TYPE3
F @VAS1
F @PO0
F c16r2r8.c16c16r16c16
F c16r4..c16c16r16c16c16r16c16r16
F c16r4..c16r16c16r16c16r8.
F c16r16c16r16c16r8.c16c16r16c16c16r16c16r16
F c16r2r8.c16c16r16c16
F c16r4..c16c16r16c16c16r16c16r16
F c16r4..c16r16c16r16c16r8.
F c16r16c16r16c16r8.c16c16r16c16c16r16c16r16
F c16r2r8.c16c16r16c16
F c16r4..c16c16r16c16c16r16c16r16
F c16r4..c16r16c16r16c16r8.
F c16r16c16r16c16r8.c16c16r16c16c16r16c16r16
F c16c16r16c16c16r8.c16r16c16r16c16r8.
F c16r8.c16r8.c16r16c16r16c16r16c16r16
F c16c16r16c16c16r8.c16r16c16r16c16r8.
F c16r8.c16r4..c16r16c16r16
F c16c16r16c16c16r8.c16r16c16r16c16r8.
F c16r8.c16r8.c16r16c16r16c16r16c16r16
F c16c16r16c16c16r8.c16r16c16r16c16r8.
F c16r8.c16r4..c16r16c16r16
F c16c16r16c16c16r8.c16r16c16r16c16r8.
F c16r8.c16r8.c16r16c16r16c16r16c16r16
F c16c16r16c16c16r8.c16r16c16r16c16r8.
F c16r8.c16r4..c16r16c16r12
F @PO0
F @VAS1
