@VAS0 = { 0 }
@VAS1 = { 255 255 255 255 255 255 255 255 255 255 255 255 255 255 255 255 255 255 255 255 255 255 255 255 255 255 255 255 255 255 255 255 255 255 255 255 255 255 255 255 255 255 255 255 255 255 255 255 255 255 255 255 255 255 255 255 255 255 255 255 255 255 255 255 255 255 255 255 255 255 255 255 255 255 255 255 255 255 255 255 255 255 255 255 255 255 255 255 255 255 255 255 255 255 255 255 255 255 255 0 }
@PO0 = { 0 -48 }

A t101 y32
A o5c+16r32c+16r32c+16r32>d+16r32a16r32a16r32a16r32f+16r32g+16r32g+16r32g+16
A r32g+6r48g+16r32d+4.f+16r32f+16r32f+16r32f+16
A r8f+16r32g+16r32g+16r32g+16r32a6r48a16r32f+8.
A <c+16r32c+16r32c+16r32>d+16r32a16r32a16r32a16r32f+16r32g+16r32g+16r32g+16
A r32g+6r48g+16r32d+4.f+16r32f+16r32f+16r32f+16
A r8f+16r32f+16r32f+16r32f+16r32f+16r8f+16r32d+8.
A <c+16r32c+16r32c+16r32>d+16r32a16r32a16r32a16r32f+16r32g+16r32g+16r32g+16
A r32g+6r48g+16r32d+4.f+16r32f+16r32f+16r32f+16
A r8f+16r32g+16r32g+16r32g+16r32a6r48a16r32f+8.
A <c+16r32c+16r32c+16r32>d+16r32a16r32a16r32a16r32f+16r32g+16r32g+16r32g+16
A r32g+6r48g+16r32d+4.f+16r32f+16r32f+16r32f+16
A r8..f+16r32f+16r8f+16r4.r32

B t101 @TYPE4 @VAS1
B o5c+1w1w2w8
B d+4.
B f+1w1w2w8
B d+4.
B c+1w1w2w8
B d+4.
B f+1w1w2w8
B d+4. @VAS1

C t101 @TYPE5 @VAS0 @CV1
C o5c16r32c16r32c16r2c16r32c16r8
C c16r4.r32c16r32c16r32c16r2
C c16r32c16r8c16r8c16r32c16r8
C c16r32c16r32c16r2c16r32c16r8
C c16r4.r32c16r32c16r32c16r2
C c16r32c16r8c16r8c16r32c16r8
C c16r32c16r32c16r2c16r32c16r8
C c16r4.r32c16r32c16r32c16r2
C c16r32c16r8c16r8c16r32c16r8
C c16r32c16r32c16r2c16r32c16r8
C c16r4.r32c16r32c16r32c16r2
C c16r32c16r8c16r8c16r32c16r8
C @VAS0

D t101 @PO0 @CP4 y64
D o3c16r32c16r32c16r2c16r32c16r8
D c16r4.r32c16r32c16r32c16r2
D c16r32c16r8c16r8c16r32c16r8
D c16r32c16r32c16r2c16r32c16r8
D c16r4.r32c16r32c16r32c16r2
D c16r32c16r8c16r8c16r32c16r8
D c16r32c16r32c16r2c16r32c16r8
D c16r4.r32c16r32c16r32c16r2
D c16r32c16r8c16r8c16r32c16r8
D c16r32c16r32c16r2c16r32c16r8
D c16r4.r32c16r32c16r32c16r2
D c16r32c16r8c16r8c16r32c16r8 @PO0
