<?xml version="1.0" encoding="UTF-8" standalone="no"?>
<!-- Created with Inkscape (http://www.inkscape.org/) -->

<svg
   xmlns:dc="http://purl.org/dc/elements/1.1/"
   xmlns:cc="http://creativecommons.org/ns#"
   xmlns:rdf="http://www.w3.org/1999/02/22-rdf-syntax-ns#"
   xmlns:svg="http://www.w3.org/2000/svg"
   xmlns="http://www.w3.org/2000/svg"
   xmlns:sodipodi="http://sodipodi.sourceforge.net/DTD/sodipodi-0.dtd"
   xmlns:inkscape="http://www.inkscape.org/namespaces/inkscape"
   width="136.09865mm"
   height="131.99791mm"
   viewBox="0 0 136.09865 131.99791"
   version="1.1"
   id="svg8"
   inkscape:version="0.92.2 (5c3e80d, 2017-08-06)"
   sodipodi:docname="icon_new.svg">
  <defs
     id="defs2" />
  <sodipodi:namedview
     id="base"
     pagecolor="#ffffff"
     bordercolor="#666666"
     borderopacity="1.0"
     inkscape:pageopacity="0.0"
     inkscape:pageshadow="2"
     inkscape:zoom="1.4"
     inkscape:cx="377.17476"
     inkscape:cy="308.96114"
     inkscape:document-units="mm"
     inkscape:current-layer="layer1"
     showgrid="false"
     fit-margin-top="0.25"
     fit-margin-left="0.25"
     fit-margin-right="0.25"
     fit-margin-bottom="0.25"
     inkscape:pagecheckerboard="true"
     inkscape:window-width="2560"
     inkscape:window-height="1377"
     inkscape:window-x="1912"
     inkscape:window-y="-8"
     inkscape:window-maximized="1" />
  <metadata
     id="metadata5">
    <rdf:RDF>
      <cc:Work
         rdf:about="">
        <dc:format>image/svg+xml</dc:format>
        <dc:type
           rdf:resource="http://purl.org/dc/dcmitype/StillImage" />
        <dc:title></dc:title>
      </cc:Work>
    </rdf:RDF>
  </metadata>
  <g
     inkscape:label="Layer 1"
     inkscape:groupmode="layer"
     id="layer1"
     transform="translate(-70.658335,-170.35476)">
    <path
       inkscape:connector-curvature="0"
       id="path4586"
       d="m 70.908335,274.586 v -27.51666 h 16.3356 16.335605 l -5.354625,-5.35941 -5.35462,-5.3594 5.35623,-5.35622 5.356225,-5.35622 h -16.337215 -16.3372 v -27.51667 -27.51666 h 19.05 19.050005 v 4.23333 4.23333 h 48.74902 48.74901 l -28.64054,28.64145 -28.64053,28.64145 28.64084,28.64084 28.64085,28.64084 h -48.88162 -48.88162 v 4.23333 4.23334 H 89.826045 70.908335 Z m 41.010415,-19.12518 v -0.0752 l -1.4552,-1.43713 -1.45521,-1.43713 v 1.51232 1.51231 h 1.45521 1.4552 z m -1.32291,-36.83419 1.43713,-1.45521 h -1.51232 -1.51231 v 1.45521 1.45521 h 0.0752 0.0752 z"
       style="fill:#ffffff;stroke-width:0.26458332;fill-opacity:1" />
    <path
       inkscape:connector-curvature="0"
       id="path4584"
       d="m 70.908335,274.586 v -27.51666 h 16.3356 16.335605 l -5.354625,-5.35941 -5.35462,-5.3594 5.35623,-5.35622 5.356225,-5.35622 h -16.337215 -16.3372 v -27.51667 -27.51666 h 19.05 19.050005 v 4.23333 4.23333 h 48.74902 48.74901 l -28.64054,28.64145 -28.64053,28.64145 28.64084,28.64084 28.64085,28.64084 h -48.88162 -48.88162 v 4.23333 4.23334 H 89.826045 70.908335 Z m 35.718755,21.16667 v -4.23334 h 47.29379 47.29379 l -27.58218,-27.58312 -27.58218,-27.58313 27.5825,-27.58249 27.58249,-27.5825 h -47.16181 -47.16182 v -4.23333 -4.23334 H 89.958335 73.025005 v 25.4 25.4 h 16.93333 16.933335 v -4.23333 -4.23334 h 5.22511 5.22511 l -10.64868,10.64867 -10.648665,10.64867 10.647855,10.65029 10.64786,10.65029 h -5.22429 -5.2243 V 253.41934 249.186 H 89.958335 73.025005 v 25.4 25.4 h 16.80104 16.801035 z M 77.258335,274.586 v -21.16666 h 12.7 12.699995 v 4.23333 4.23333 h 12.10366 12.10367 l -12.76479,-12.76682 -12.76479,-12.76682 12.76547,-12.76547 12.76547,-12.76547 h -12.10435 -12.10434 v 4.23333 4.23334 h -12.699995 -12.7 v -21.16667 -21.16666 h 12.7 12.699995 v 4.23333 4.23333 h 44.51563 44.51563 l -25.46546,25.46649 -25.46546,25.46648 25.4658,25.46581 25.4658,25.4658 h -44.64826 -44.64826 v 4.23333 4.23334 H 89.826045 77.258335 Z m 34.660415,-19.12518 v -0.0752 l -1.4552,-1.43713 -1.45521,-1.43713 v 1.51232 1.51231 h 1.45521 1.4552 z m -1.32291,-36.83419 1.43713,-1.45521 h -1.51232 -1.51231 v 1.45521 1.45521 h 0.0752 0.0752 z"
       style="fill:#f57878;stroke-width:0.26458332;fill-opacity:1" />
    <path
       inkscape:connector-curvature="0"
       id="path4582"
       d="m 70.908335,274.586 v -27.51666 h 16.3356 16.335605 l -5.354625,-5.35941 -5.35462,-5.3594 5.35623,-5.35622 5.356225,-5.35622 h -16.337215 -16.3372 v -27.51667 -27.51666 h 19.05 19.050005 v 4.23333 4.23333 h 48.74902 48.74901 l -28.64054,28.64145 -28.64053,28.64145 28.64084,28.64084 28.64085,28.64084 h -48.88162 -48.88162 v 4.23333 4.23334 H 89.826045 70.908335 Z m 35.718755,21.16667 v -4.23334 h 47.29379 47.29379 l -27.58218,-27.58312 -27.58218,-27.58313 27.5825,-27.58249 27.58249,-27.5825 h -47.16181 -47.16182 v -4.23333 -4.23334 H 89.958335 73.025005 v 25.4 25.4 h 16.93333 16.933335 v -4.23333 -4.23334 h 5.22511 5.22511 l -10.64868,10.64867 -10.648665,10.64867 10.647855,10.65029 10.64786,10.65029 h -5.22429 -5.2243 V 253.41934 249.186 H 89.958335 73.025005 v 25.4 25.4 h 16.80104 16.801035 z M 77.258335,274.586 v -21.16666 h 12.7 12.699995 v 4.23333 4.23333 h 12.10366 12.10367 l -12.76479,-12.76682 -12.76479,-12.76682 12.76547,-12.76547 12.76547,-12.76547 h -12.10435 -12.10434 v 4.23333 4.23334 h -12.699995 -12.7 v -21.16667 -21.16666 h 12.7 12.699995 v 4.23333 4.23333 h 44.51563 44.51563 l -25.46546,25.46649 -25.46546,25.46648 25.4658,25.46581 25.4658,25.4658 h -44.64826 -44.64826 v 4.23333 4.23334 H 89.826045 77.258335 Z m 7.40833,-0.0579 v -13.70047 h 5.23381 5.2338 l 1.57093,-1.5875 1.57094,-1.5875 h -8.39224 -8.39224 v 16.8589 16.85891 l 1.5875,-1.57094 1.5875,-1.57093 z m 72.628115,-14.7588 -23.2822,-23.28334 h -2.64583 -2.64583 l 23.2822,23.28334 23.2822,23.28333 h 2.64585 2.64582 z m -17.72708,7.9375 -1.57092,-1.5875 H 118.26875 98.540725 l -1.57093,1.5875 -1.57094,1.5875 h 22.869895 22.86989 z m -10.84791,-46.30209 14.81489,-14.81666 h -2.77813 -2.77812 l -14.81489,14.81666 -14.8149,14.81667 h 2.77813 2.77812 z M 84.666665,198.06352 v -13.70047 h 5.23381 5.2338 l 1.57093,-1.5875 1.57094,-1.5875 h -8.39224 -8.39224 v 16.8589 16.85891 l 1.5875,-1.57094 1.5875,-1.57093 z m 89.032285,-6.8213 1.57094,-1.5875 H 136.84745 98.425005 v 1.5875 1.5875 h 36.851505 36.85152 z m -61.7802,64.21856 v -0.0752 l -1.4552,-1.43713 -1.45521,-1.43713 v 1.51232 1.51231 h 1.45521 1.4552 z m -1.32291,-36.83419 1.43713,-1.45521 h -1.51232 -1.51231 v 1.45521 1.45521 h 0.0752 0.0752 z"
       style="fill:#e63c46;stroke-width:0.26458332;fill-opacity:1" />
    <path
       inkscape:connector-curvature="0"
       id="path4580"
       d="m 70.908335,274.586 v -27.51666 h 16.3356 16.335605 l -5.354625,-5.35941 -5.35462,-5.3594 5.35623,-5.35622 5.356225,-5.35622 h -16.337215 -16.3372 v -27.51667 -27.51666 h 19.05 19.050005 v 4.23333 4.23333 h 48.74902 48.74901 l -28.64054,28.64145 -28.64053,28.64145 28.64084,28.64084 28.64085,28.64084 h -48.88162 -48.88162 v 4.23333 4.23334 H 89.826045 70.908335 Z m 35.718755,21.16667 v -4.23334 h 47.29379 47.29379 l -27.58218,-27.58312 -27.58218,-27.58313 27.5825,-27.58249 27.58249,-27.5825 h -47.16181 -47.16182 v -4.23333 -4.23334 H 89.958335 73.025005 v 25.4 25.4 h 16.93333 16.933335 v -4.23333 -4.23334 h 5.22511 5.22511 l -10.64868,10.64867 -10.648665,10.64867 10.647855,10.65029 10.64786,10.65029 h -5.22429 -5.2243 V 253.41934 249.186 H 89.958335 73.025005 v 25.4 25.4 h 16.80104 16.801035 z M 77.258335,274.586 v -21.16666 h 12.7 12.699995 v 4.23333 4.23333 h 12.10366 12.10367 l -12.76479,-12.76682 -12.76479,-12.76682 12.76547,-12.76547 12.76547,-12.76547 h -12.10435 -12.10434 v 4.23333 4.23334 h -12.699995 -12.7 v -21.16667 -21.16666 h 12.7 12.699995 v 4.23333 4.23333 h 44.51563 44.51563 l -25.46546,25.46649 -25.46546,25.46648 25.4658,25.46581 25.4658,25.4658 h -44.64826 -44.64826 v 4.23333 4.23334 H 89.826045 77.258335 Z m 12.50923,13.75833 h 5.21785 v -4.23333 -4.23333 h 38.571295 38.57131 l 1.57093,1.5875 1.57093,1.5875 h 2.65357 2.65354 L 157.29478,259.76934 134.01258,236.486 h -2.7778 -2.77781 l 14.9472,-14.94895 14.9472,-14.94896 h -10.18648 -10.18646 l -14.81488,14.81666 -14.8149,14.81667 h 2.64574 2.64573 l 16.53488,16.53646 16.53487,16.53646 h -2.78561 -2.78561 l -1.57094,-1.5875 -1.57093,-1.5875 H 118.28416 98.571525 l -1.66076,1.646 -1.66076,1.646 v -4.35031 -4.35031 l 1.51307,-1.52902 1.51307,-1.52903 h -8.39224 -8.39224 v 16.8589 16.85891 l 1.52903,-1.51307 1.52903,-1.51308 z m -5.1009,-90.28077 v -13.70047 h 5.23381 5.2338 l 1.57093,-1.5875 1.57094,-1.5875 h -8.39224 -8.39224 v 16.8589 16.85891 l 1.5875,-1.57094 1.5875,-1.57093 z m 89.032285,-6.8213 1.57094,-1.5875 H 136.84745 98.425005 v 1.5875 1.5875 h 36.851505 36.85152 z m -61.7802,64.21856 v -0.0752 l -1.4552,-1.43713 -1.45521,-1.43713 v 1.51232 1.51231 h 1.45521 1.4552 z m -1.32291,-36.83419 1.43713,-1.45521 h -1.51232 -1.51231 v 1.45521 1.45521 h 0.0752 0.0752 z"
       style="fill:#a02837;stroke-width:0.26458332;fill-opacity:1" />
    <path
       inkscape:connector-curvature="0"
       id="path4578"
       d="m 70.908335,274.586 v -27.51666 h 16.3356 16.335605 l -5.354625,-5.35941 -5.35462,-5.3594 5.35623,-5.35622 5.356225,-5.35622 h -16.337215 -16.3372 v -27.51667 -27.51666 h 19.05 19.050005 v 4.23333 4.23333 h 48.74902 48.74901 l -28.64054,28.64145 -28.64053,28.64145 28.64084,28.64084 28.64085,28.64084 h -48.88162 -48.88162 v 4.23333 4.23334 H 89.826045 70.908335 Z m 35.718755,21.16667 v -4.23334 h 47.29379 47.29379 l -27.58218,-27.58312 -27.58218,-27.58313 27.5825,-27.58249 27.58249,-27.5825 h -47.16181 -47.16182 v -4.23333 -4.23334 H 89.958335 73.025005 v 25.4 25.4 h 16.93333 16.933335 v -4.23333 -4.23334 h 5.22511 5.22511 l -10.64868,10.64867 -10.648665,10.64867 10.647855,10.65029 10.64786,10.65029 h -5.22429 -5.2243 V 253.41934 249.186 H 89.958335 73.025005 v 25.4 25.4 h 16.80104 16.801035 z M 77.258335,274.586 v -21.16666 h 12.7 12.699995 v 4.23333 4.23333 h 12.10366 12.10367 l -12.76479,-12.76682 -12.76479,-12.76682 12.76547,-12.76547 12.76547,-12.76547 h -12.10435 -12.10434 v 4.23333 4.23334 h -12.699995 -12.7 v -21.16667 -21.16666 h 12.7 12.699995 v 4.23333 4.23333 h 44.51563 44.51563 l -25.46546,25.46649 -25.46546,25.46648 25.4658,25.46581 25.4658,25.4658 h -44.64826 -44.64826 v 4.23333 4.23334 H 89.826045 77.258335 Z m 20.90208,12.7 v -4.23333 h 41.208665 41.20866 l -23.34909,-23.34911 -23.34911,-23.3491 23.34873,-23.34985 23.34872,-23.34985 h -41.076 -41.075985 v -4.23334 -4.23333 h -8.46667 -8.46667 v 16.93333 16.93333 h 8.46667 8.46667 v -4.23333 -4.23333 h 19.776725 19.77672 l -14.88164,14.88339 -14.88165,14.8834 14.88223,14.88223 14.88223,14.88223 H 118.20231 98.425005 v -4.23334 -4.23333 h -8.46667 -8.46667 v 16.93333 16.93333 h 8.33438 8.33437 z m 13.758335,-31.82518 v -0.0752 l -1.4552,-1.43713 -1.45521,-1.43713 v 1.51232 1.51231 h 1.45521 1.4552 z m -1.32291,-36.83419 1.43713,-1.45521 h -1.51232 -1.51231 v 1.45521 1.45521 h 0.0752 0.0752 z"
       style="fill:#3c4664;stroke-width:0.26458332;fill-opacity:1" />
    <path
       inkscape:connector-curvature="0"
       id="path4576"
       d="m 70.908335,274.586 v -27.51666 h 16.3356 16.335605 l -5.354625,-5.35941 -5.35462,-5.3594 5.35623,-5.35622 5.356225,-5.35622 h -16.337215 -16.3372 v -27.51667 -27.51666 h 19.05 19.050005 v 4.23333 4.23333 h 48.74902 48.74901 l -28.64054,28.64145 -28.64053,28.64145 28.64084,28.64084 28.64085,28.64084 h -48.88162 -48.88162 v 4.23333 4.23334 H 89.826045 70.908335 Z m 35.718755,21.16667 v -4.23334 h 47.29379 47.29379 l -27.58218,-27.58312 -27.58218,-27.58313 27.5825,-27.58249 27.58249,-27.5825 h -47.16181 -47.16182 v -4.23333 -4.23334 H 89.958335 73.025005 v 25.4 25.4 h 16.93333 16.933335 v -4.23333 -4.23334 h 5.22511 5.22511 l -10.64868,10.64867 -10.648665,10.64867 10.647855,10.65029 10.64786,10.65029 h -5.22429 -5.2243 V 253.41934 249.186 H 89.958335 73.025005 v 25.4 25.4 h 16.80104 16.801035 z m -27.384385,-2.11667 2.10426,-2.11667 h 8.40672 8.40673 v -4.23333 -4.23333 h 41.215065 41.21506 l 2.10425,2.11666 2.10426,2.11667 H 143.5964 102.39376 v 4.23333 4.23334 H 89.766105 77.138455 Z m 19.1823,-31.76241 v -4.36563 l 2.116665,-2.10425 2.11667,-2.10425 v 4.36562 4.36563 l -2.11667,2.10425 -2.116665,2.10425 z m 17.727085,-10.70321 -14.9472,-14.94896 h 3.43958 3.43958 l 14.9472,14.94896 14.9472,14.94896 h -3.43958 -3.43959 z m 43.12708,-40.21667 25.53125,-25.53229 h 3.43959 3.43958 l -25.53125,25.53229 -25.53127,25.53229 h -3.43959 -3.43958 z m -80.036465,6.21771 2.10426,-2.11667 h 8.53902 8.53902 v -4.23333 -4.23333 h 16.331815 16.3318 l -2.10425,2.11666 -2.10425,2.11667 h -12.1109 -12.11089 v 4.23333 4.23334 H 89.898395 77.138455 Z m 19.1823,-31.76241 v -4.36563 l 2.116665,-2.10425 2.11667,-2.10425 v 4.36562 4.36563 l -2.11667,2.10425 -2.116665,2.10425 z m 13.493745,70.05181 v -0.0752 l -1.4552,-1.43713 -1.45521,-1.43713 v 1.51232 1.51231 h 1.45521 1.4552 z m -1.32291,-36.83419 1.43713,-1.45521 h -1.51232 -1.51231 v 1.45521 1.45521 h 0.0752 0.0752 z"
       style="fill:#231e3c;stroke-width:0.26458332;fill-opacity:1" />
  </g>
</svg>
