A t150 @@2 v10
A o6c8<a16r16a8b16r16b8>c16r16c8r4
A <a16r16a8b16r16>c8r4.
A <b8g16r16g8a16r16a8b16r16b8r4
A g16r16g8a16r16b8r4.
A a8f16r16f8g16r16g8a16r16a8b4
A f16r16f8g16r16g8a16r16a8r4
A g16r16g8a16r16a8b16r16b8>d4
A <g16r16g8a16r16a8b16r16b8>c8

D t150 v10 @q5
D o0c16r16c16r16c16r16c16r16c16r16c16r16c16r16c16c16
D c16r16c16r16c16r16c16r16c16r16c16r16c16r16c16r16
D c16r16c16r16c16r16c16r16c16r16c16r16c16r16c16c16
D c16r16c16r16c16r16c16r16c16r16c16r16c16r16c16r16
D c16r16c16r16c16r16c16r16c16r16c16r16c16r16c16c16
D c16r16c16r16c16r16c16r16c16r16c16r16c16r16c16r16
D c16r16c16r16c16r16c16r16c16r16c16r16c16r16c16c16
D c16r16c16r16c16r16c16r16c16r16c16r16c16r16c16r16

E t150
E o0c8r8c8r8c8r8c8r8
E c8r8c8c8c8r8c8r8
E c8r8c8r8c8r8c8r8
E c8r8c8c8c8r8c8r8
E c8r8c8r8c8r8c8r8
E c8r8c8c8c8r8c8r8
E c8r8c8r8c8r8c8r8
E c8r8c8c8c8c8c8c8
