A t101 @@0 v10
A o5c+16r32c+16r32c+16r32<d+16r32a16r32a16r32a16r32f+16r32g+16r32g+16r32g+16
A r32g+6r48g+16r32d+4.f+16r32f+16r32f+16r32f+16
A r8f+16r32g+16r32g+16r32g+16r32a6r48a16r32f+8.
A >c+16r32c+16r32c+16r32<d+16r32a16r32a16r32a16r32f+16r32g+16r32g+16r32g+16
A r32g+6r48g+16r32d+4.f+16r32f+16r32f+16r32f+16
A r8f+16r32f+16r32f+16r32f+16r32f+16r8f+16r32d+8.
A >c+16r32c+16r32c+16r32<d+16r32a16r32a16r32a16r32f+16r32g+16r32g+16r32g+16
A r32g+6r48g+16r32d+4.f+16r32f+16r32f+16r32f+16
A r8f+16r32g+16r32g+16r32g+16r32a6r48a16r32f+8.
A >c+16r32c+16r32c+16r32<d+16r32a16r32a16r32a16r32f+16r32g+16r32g+16r32g+16
A r32g+6r48g+16r32d+4.f+16r32f+16r32f+16r32f+16
A r8..f+16r32f+16r8f+16r4.r32

C t101 v10
C o5c+1^1^2^8
C d+4.
C f+1^1^2^8
C d+4.
C c+1^1^2^8
C d+4.
C f+1^1^2^8
C d+4.

D t101 v10
D o5c16r32c16r32c16r2c16r32c16r8
D c16r4.r32c16r32c16r32c16r2
D c16r32c16r8c16r8c16r32c16r8
D c16r32c16r32c16r2c16r32c16r8
D c16r4.r32c16r32c16r32c16r2
D c16r32c16r8c16r8c16r32c16r8
D c16r32c16r32c16r2c16r32c16r8
D c16r4.r32c16r32c16r32c16r2
D c16r32c16r8c16r8c16r32c16r8
D c16r32c16r32c16r2c16r32c16r8
D c16r4.r32c16r32c16r32c16r2
D c16r32c16r8c16r8c16r32c16r8

E t101
E o0c16r32c16r32c16r2c16r32c16r8
E c16r4.r32c16r32c16r32c16r2
E c16r32c16r8c16r8c16r32c16r8
E c16r32c16r32c16r2c16r32c16r8
E c16r4.r32c16r32c16r32c16r2
E c16r32c16r8c16r8c16r32c16r8
E c16r32c16r32c16r2c16r32c16r8
E c16r4.r32c16r32c16r32c16r2
E c16r32c16r8c16r8c16r32c16r8
E c16r32c16r32c16r2c16r32c16r8
E c16r4.r32c16r32c16r32c16r2
E c16r32c16r8c16r8c16r32c16
