A t130 v10 o4 @@2
A c4.r8<c4.>r8
A c4.r8<d4.>r8
A c4.r8<a4.r8
A b2>f8r16f8r16g8
A c4.r8<c4.>r8
A c4.r8<d4.>r8
A c4.r8<a4.r8
A b2>f8r16f8r16g8
A c4.r8<c4.>r8
A c4.r8<d4.>r8
A c4.r8<a4.r8
A b2>f8r16f8r16g8
A c32r32c32r16.c32r32c2r4
A d16r16c16r16d16r16c16r16d16r16c16r16d16r16c16r16
A >c32r32c32r16.c32r32c2r4
A d16r16c16r16d16r16c16r16d16r16c16r16d16r8.
A <c32r32c32r16.c32r32c2r4
A d16r16c16r16d16r16c16r16d16r16c16r16d16r16c16r16
A >c32r32c32r16.c32r32c2r4
A d16r16c16r16d16r16c16r16d16r16c16r16d16r8.
A <c32r32c32r16.c32r32c2r4
A d16r16c16r16d16r16c16r16d16r16c16r16d16r16c16r16
A >c32r32c32r16.c32r32c2r4
A d16r16c16r16d16r16c16r16d16r16c16r16d16r6r24

B t130 v8 @@0
B o4
B c2.r4
B d2<b2
B >c2.r4
B <b2>d2
B c2.r4
B d2<b2
B >c2.r4
B <b2>d2
B c2.r4
B d2<b2
B >c2.r4
B <b2>d2
B c2..r8
B <b2>d2
B c2..r8
B b2>d2
B <c2..r8
B <b2>d2
B c2..r8
B b2>d2
B <c2..r8
B <b2>d2
B c2..r8
B b2>d2
B r48

D t130 o0 v10 @q5
D c16r16c16r16c16r16c16r16c16r16c16r16c16r16c16r16
D c16r16c16r16c16r16c16r16c16c16r16c16c16r16c16r16
D c16r16c16r16c16r16c16r16c16r16c16r16c16r16c16r16
D c16r16c16r16c16r16c16r16c16c16r16c16c16r16c16r16
D c16r16c16r16c16r16c16r16c16r16c16r16c16r16c16r16
D c16r16c16r16c16r16c16r16c16c16r16c16c16r16c16r16
D c16r16c16r16c16r16c16r16c16r16c16r16c16r16c16r16
D c16r16c16r16c16r16c16r16c16c16r16c16c16r16c16r16
D c16r16c16r16c16r16c16r16c16r16c16r16c16r16c16r16
D c16r16c16r16c16r16c16r16c16c16r16c16c16r16c16r16
D c16r16c16r16c16r16c16r16c16r16c16r16c16r16c16r16
D c16r16c16r16c16r16c16r16c16c16r16c16c16r16c16r16

E t130 o0
E c16r2r8.c16c16r16c16
E c16r4..c16c16r16c16c16r16c16r16
E c16r4..c16r16c16r16c16r8.
E c16r16c16r16c16r8.c16c16r16c16c16r16c16r16
E c16r2r8.c16c16r16c16
E c16r4..c16c16r16c16c16r16c16r16
E c16r4..c16r16c16r16c16r8.
E c16r16c16r16c16r8.c16c16r16c16c16r16c16r16
E c16r2r8.c16c16r16c16
E c16r4..c16c16r16c16c16r16c16r16
E c16r4..c16r16c16r16c16r8.
E c16r16c16r16c16r8.c16c16r16c16c16r16c16r16
E c16c16r16c16c16r8.c16r16c16r16c16r8.
E c16r8.c16r8.c16r16c16r16c16r16c16r16
E c16c16r16c16c16r8.c16r16c16r16c16r8.
E c16r8.c16r4..c16r16c16r16
E c16c16r16c16c16r8.c16r16c16r16c16r8.
E c16r8.c16r8.c16r16c16r16c16r16c16r16
E c16c16r16c16c16r8.c16r16c16r16c16r8.
E c16r8.c16r4..c16r16c16r16
E c16c16r16c16c16r8.c16r16c16r16c16r8.
E c16r8.c16r8.c16r16c16r16c16r16c16r16
E c16c16r16c16c16r8.c16r16c16r16c16r8.
E c16r8.c16r4..c16r16c16
